<svg id="Layer_1" data-name="Layer 1" xmlns="http://www.w3.org/2000/svg" viewBox="0 0 24 24"><defs><style>.cls-1{fill:none;}.cls-2{fill:#fff;}</style></defs><title>revert_n</title><path class="cls-1" d="M24,24H0V0H24Z" transform="translate(0 0)"/><path class="cls-2" d="M17.93,11h2A7.92,7.92,0,0,0,18.3,7.11L16.89,8.53A5.93,5.93,0,0,1,17.93,11Zm-1,4.47,1.39,1.42A7.91,7.91,0,0,0,19.91,13h-2A6,6,0,0,1,16.9,15.47Zm-1.44,1.46a5.91,5.91,0,0,1-2.46,1v2a7.92,7.92,0,0,0,3.91-1.61ZM4.21,10.86a8,8,0,0,0,6.79,9v-2A6,6,0,0,1,11,6.09V10l4.55-4.45L11,1V4.07A8,8,0,0,0,4.21,10.86Z" transform="translate(0 0)"/></svg>